<svg width="103.360008" height="25.637695" viewBox="0 0 103.36 25.6377" fill="none" xmlns="http://www.w3.org/2000/svg" xmlns:xlink="http://www.w3.org/1999/xlink">
	<desc>
			Created with Pixso.
	</desc>
	<defs/>
	<path id="LOGO." d="M22.3 24.82Q24.46 25.63 26.93 25.63Q29.54 25.63 31.79 24.74Q32.58 24.42 33.33 24Q34.66 23.24 35.73 22.2Q36.97 21 37.86 19.44Q38.08 19.05 38.28 18.64Q39.52 16.02 39.52 12.81Q39.52 9.63 38.3 7.03Q38.1 6.6 37.86 6.19Q36.97 4.61 35.71 3.41Q34.65 2.39 33.33 1.64Q32.56 1.2 31.75 0.88Q29.51 0 26.93 0Q24.48 0 22.34 0.8Q21.42 1.14 20.55 1.64Q19.34 2.32 18.35 3.24Q16.97 4.5 16 6.21Q15.67 6.78 15.41 7.38Q14.33 9.86 14.33 12.81Q14.33 15.8 15.43 18.3Q15.68 18.87 16 19.42Q16.96 21.11 18.33 22.37Q19.33 23.3 20.55 24Q21.4 24.48 22.3 24.82ZM61.13 5.15Q62.18 6.15 62.85 7.55L66.78 7.55Q65.89 5.27 64.32 3.64Q63.42 2.7 62.29 1.98Q61.56 1.51 60.78 1.15Q58.27 0 55.22 0Q52.78 0 50.64 0.8Q49.71 1.14 48.84 1.64Q47.64 2.32 46.64 3.24Q45.27 4.5 44.29 6.21Q43.97 6.78 43.7 7.38Q42.62 9.86 42.62 12.81Q42.62 15.85 43.76 18.37Q44 18.89 44.29 19.4Q45.23 21.04 46.55 22.27Q47.58 23.24 48.84 23.96Q49.69 24.44 50.6 24.78Q52.76 25.6 55.22 25.6Q57.81 25.6 60.02 24.69Q60.65 24.43 61.24 24.1Q62.68 23.31 63.82 22.2Q64.82 21.24 65.59 20.03Q66.32 18.9 66.78 17.68Q67.38 16.1 67.54 14.37L67.54 11.84L54.04 11.84L54.04 14.51L64.04 14.51Q63.73 17.48 62.16 19.48Q61.76 20 61.27 20.45Q60.64 21.03 59.91 21.46Q57.92 22.64 55.22 22.64Q53.14 22.64 51.38 21.89Q50.92 21.69 50.49 21.44Q49.72 21 49.08 20.43Q47.94 19.42 47.17 18Q45.97 15.76 45.97 12.81Q45.97 9.87 47.17 7.62Q47.97 6.13 49.16 5.1Q49.77 4.57 50.49 4.16Q50.94 3.9 51.43 3.69Q53.17 2.95 55.22 2.95Q57.6 2.95 59.44 3.94Q59.64 4.04 59.83 4.16Q60.54 4.59 61.13 5.15ZM78.6 24.82Q80.77 25.63 83.23 25.63Q85.84 25.63 88.1 24.74Q88.89 24.42 89.63 24Q90.97 23.24 92.04 22.2Q93.28 21 94.17 19.44Q94.39 19.05 94.58 18.64Q95.83 16.02 95.83 12.81Q95.83 9.63 94.6 7.03Q94.4 6.6 94.17 6.19Q93.27 4.61 92.02 3.41Q90.95 2.39 89.63 1.64Q88.87 1.2 88.05 0.88Q85.82 0 83.23 0Q80.79 0 78.64 0.8Q77.72 1.14 76.85 1.64Q75.65 2.32 74.65 3.24Q73.27 4.5 72.3 6.21Q71.97 6.78 71.71 7.38Q70.63 9.86 70.63 12.81Q70.63 15.8 71.73 18.3Q71.99 18.87 72.3 19.42Q73.27 21.11 74.63 22.37Q75.63 23.3 76.85 24Q77.7 24.48 78.6 24.82ZM12.06 22.71L3.27 22.71L3.27 0.29L0 0.29L0 25.38L12.06 25.38L12.06 22.71ZM30.72 22.04Q28.99 22.79 26.93 22.79Q24.9 22.79 23.17 22.05Q22.67 21.84 22.19 21.56Q21.5 21.16 20.9 20.64Q19.68 19.59 18.88 18.07Q17.67 15.8 17.67 12.81Q17.67 9.79 18.88 7.54Q19.69 6.02 20.91 4.97Q21.49 4.46 22.17 4.06Q22.52 3.86 22.87 3.7Q24.7 2.84 26.93 2.84Q29.18 2.84 31.01 3.71Q31.35 3.87 31.67 4.06Q32.36 4.46 32.94 4.97Q34.16 6.02 34.97 7.54Q36.17 9.79 36.17 12.81Q36.17 15.8 34.97 18.07Q34.16 19.59 32.95 20.64Q32.35 21.16 31.66 21.56Q31.2 21.83 30.72 22.04ZM87.02 22.04Q85.29 22.79 83.23 22.79Q81.2 22.79 79.48 22.05Q78.97 21.84 78.5 21.56Q77.8 21.16 77.2 20.64Q75.99 19.59 75.18 18.07Q73.98 15.8 73.98 12.81Q73.98 9.79 75.18 7.54Q75.99 6.02 77.21 4.97Q77.8 4.46 78.48 4.06Q78.82 3.86 79.18 3.7Q81.01 2.84 83.23 2.84Q85.48 2.84 87.32 3.71Q87.66 3.87 87.98 4.06Q88.66 4.46 89.25 4.97Q90.46 6.02 91.27 7.54Q92.48 9.79 92.48 12.81Q92.48 15.8 91.27 18.07Q90.47 19.59 89.26 20.64Q88.66 21.16 87.96 21.56Q87.5 21.83 87.02 22.04ZM100.3 25.42Q100.71 25.6 101.19 25.6Q101.65 25.6 102.04 25.43Q102.42 25.27 102.72 24.95Q103.01 24.65 103.17 24.3Q103.36 23.87 103.36 23.37Q103.36 22.83 103.15 22.38Q102.99 22.06 102.72 21.78Q102.42 21.46 102.04 21.3Q101.65 21.13 101.19 21.13Q100.71 21.13 100.3 21.31Q99.92 21.47 99.61 21.78Q99.32 22.07 99.16 22.42Q98.96 22.85 98.96 23.37Q98.96 23.85 99.14 24.26Q99.3 24.64 99.61 24.95Q99.92 25.26 100.3 25.42Z" fill="#EEEEEE" fill-opacity="1.000000" fill-rule="evenodd"/>
</svg>
