<svg width="202.019043" height="202.019165" viewBox="0 0 202.019 202.019" fill="none" xmlns="http://www.w3.org/2000/svg" xmlns:xlink="http://www.w3.org/1999/xlink">
	<desc>
			Created with Pixso.
	</desc>
	<defs>
		<clipPath id="clip88_21">
			<rect id="rocket-svgrepo-com (1).svg" width="142.849121" height="142.849121" transform="translate(0.000000 101.009583) rotate(-45.000000)" fill="white" fill-opacity="0"/>
		</clipPath>
	</defs>
	<g clip-path="url(#clip88_21)">
		<path id="path" d="M61.73 125.26C61.73 125.26 59.34 159.03 59.34 159.12C59.34 160.76 60.67 162.09 62.31 162.09C63.17 162.09 63.94 161.73 64.48 161.15L83.15 138.28L83.11 93.88L61.73 125.26Z" fill="#CCD1D9" fill-opacity="1.000000" fill-rule="nonzero"/>
		<path id="path" d="M140.28 125.26C140.28 125.26 142.67 159.03 142.66 159.12C142.67 160.76 141.33 162.09 139.69 162.09C138.84 162.09 138.07 161.73 137.53 161.16L118.86 138.28L118.9 93.87L140.28 125.26Z" fill="#CCD1D9" fill-opacity="1.000000" fill-rule="nonzero"/>
		<path id="polygon" d="M112.91 150.19L89.1 150.19L77.19 138.28L124.81 138.28L112.91 150.19Z" fill="#434A54" fill-opacity="1.000000" fill-rule="nonzero"/>
		<path id="path" d="M101.01 2.28C86.77 10.52 77.2 25.91 77.2 43.53L77.19 138.28L124.81 138.28L124.82 43.53C124.81 25.91 115.24 10.51 101.01 2.28Z" fill="#E6E9ED" fill-opacity="1.000000" fill-rule="nonzero"/>
		<path id="path" d="M121.52 26.09C117.56 16.03 110.27 7.64 101.01 2.28C91.74 7.65 84.46 16.03 80.49 26.09L121.52 26.09Z" fill="#CCD1D9" fill-opacity="1.000000" fill-rule="nonzero"/>
		<path id="path" d="M103.98 105.55C103.98 103.9 102.64 102.57 101 102.57C99.36 102.57 98.02 103.91 98.03 105.55L98.03 159.11C98.03 160.76 99.36 162.09 101 162.09C102.64 162.09 103.98 160.75 103.98 159.11L103.98 105.55Z" fill="#CCD1D9" fill-opacity="1.000000" fill-rule="nonzero"/>
		<path id="path" d="M112.91 69.83C112.9 76.41 107.58 81.74 101.01 81.74C94.43 81.74 89.1 76.41 89.1 69.83C89.1 63.26 94.42 57.93 101.01 57.93C107.58 57.93 112.91 63.26 112.91 69.83Z" fill="#434A54" fill-opacity="1.000000" fill-rule="nonzero"/>
		<path id="path" d="M111.52 80.36C108.71 83.17 104.98 84.71 101 84.72C97.03 84.72 93.29 83.16 90.48 80.36C87.67 77.54 86.12 73.81 86.12 69.84C86.12 65.86 87.67 62.13 90.48 59.31C93.29 56.5 97.03 54.95 101 54.96C104.98 54.96 108.72 56.5 111.53 59.31C114.33 62.12 115.88 65.86 115.88 69.83C115.89 73.81 114.33 77.55 111.52 80.36ZM94.69 63.52C93.01 65.21 92.07 67.46 92.08 69.84C92.08 72.22 93 74.46 94.69 76.15C96.38 77.84 98.62 78.76 101 78.76C103.39 78.77 105.63 77.83 107.32 76.15C109 74.46 109.93 72.22 109.93 69.84C109.93 67.45 109 65.21 107.32 63.52C105.63 61.84 103.39 60.9 101 60.91C98.62 60.91 96.38 61.84 94.69 63.52Z" fill="#CCD1D9" fill-opacity="1.000000" fill-rule="nonzero"/>
	</g>
</svg>
