<svg width="96.000000" height="96.000000" viewBox="0 0 96 96" fill="none" xmlns="http://www.w3.org/2000/svg" xmlns:xlink="http://www.w3.org/1999/xlink">
	<desc>
			Created with Pixso.
	</desc>
	<defs>
		<filter id="filter_21_81_dd" x="0.000000" y="0.000000" width="96.000000" height="96.000000" filterUnits="userSpaceOnUse" color-interpolation-filters="sRGB">
			<feFlood flood-opacity="0" result="BackgroundImageFix"/>
			<feColorMatrix in="SourceAlpha" type="matrix" values="0 0 0 0 0 0 0 0 0 0 0 0 0 0 0 0 0 0 127 0" result="hardAlpha"/>
			<feMorphology radius="2" in="" result="BackgroundImageFix"/>
			<feOffset dx="4" dy="4"/>
			<feGaussianBlur stdDeviation="0"/>
			<feComposite in2="hardAlpha" operator="out" k2="-1" k3="1"/>
			<feColorMatrix type="matrix" values="0 0 0 0 0 0 0 0 0 0.67843 0 0 0 0 0.7098 0 0 0 0.7 0"/>
			<feBlend mode="normal" in2="BackgroundImageFix" result="effect_dropShadow_1"/>
			<feBlend mode="normal" in="SourceGraphic" in2="effect_dropShadow_1" result="shape"/>
			<feColorMatrix in="SourceAlpha" type="matrix" values="0 0 0 0 0 0 0 0 0 0 0 0 0 0 0 0 0 0 127 0" result="hardAlpha"/>
			<feOffset dx="3" dy="3"/>
			<feGaussianBlur stdDeviation="1.33333"/>
			<feComposite in2="hardAlpha" operator="arithmetic" k2="-1" k3="1"/>
			<feColorMatrix type="matrix" values="0 0 0 0 0 0 0 0 0 0 0 0 0 0 0 0 0 0 0.25 0"/>
			<feBlend mode="normal" in2="shape" result="effect_innerShadow_2"/>
		</filter>
		<clipPath id="clip21_81">
			<rect id="фрейм 25" rx="42.500000" width="85.000000" height="85.000000" transform="translate(2.500000 2.500004)" fill="white" fill-opacity="0"/>
		</clipPath>
	</defs>
	<g filter="url(#filter_21_81_dd)">
		<rect id="фрейм 25" rx="42.500000" width="85.000000" height="85.000000" transform="translate(2.500000 2.500004)" fill="#00ADB5" fill-opacity="1.000000"/>
		<g clip-path="url(#clip21_81)">
			<path id="UP" d="M38.21 48.47L38.21 29.9L43.47 29.9L43.47 48.91C43.47 55.16 38.75 59.43 31.67 59.43C24.55 59.43 19.87 55.16 19.87 48.91L19.87 29.9L25.13 29.9L25.13 48.47C25.13 52.12 27.66 54.74 31.67 54.74C35.66 54.74 38.21 52.12 38.21 48.47ZM54.48 59L49.21 59L49.21 29.9L60.12 29.9C66.81 29.9 70.37 33.99 70.37 39.53C70.37 45.13 66.77 49.16 60.05 49.16L54.48 49.16L54.48 59ZM54.48 34.31L54.48 44.83L59.34 44.83C63.26 44.83 65 42.63 65 39.53C65 36.44 63.26 34.31 59.31 34.31L54.48 34.31Z" fill="#EEEEEE" fill-opacity="1.000000" fill-rule="evenodd"/>
		</g>
	</g>
	<rect id="фрейм 25" rx="42.500000" width="85.000000" height="85.000000" transform="translate(2.500000 2.500004)" stroke="#00666B" stroke-opacity="1.000000" stroke-width="5.000000"/>
</svg>
