<svg width="38.333313" height="39.770874" viewBox="0 0 38.3333 39.7709" fill="none" xmlns="http://www.w3.org/2000/svg" xmlns:xlink="http://www.w3.org/1999/xlink">
	<desc>
			Created with Pixso.
	</desc>
	<defs/>
	<path id="path" d="M19.26 0L19.06 0C17.34 0 15.9 -0.01 14.76 0.15C13.56 0.31 12.47 0.67 11.6 1.54C10.73 2.41 10.37 3.5 10.21 4.7C10.1 5.52 10.07 7.47 10.06 9.15C6.18 9.27 3.86 9.73 2.24 11.34C0 13.59 0 17.2 0 24.43C0 31.66 0 35.27 2.24 37.52C4.49 39.77 8.1 39.77 15.33 39.77L23 39.77C30.22 39.77 33.84 39.77 36.08 37.52C38.33 35.27 38.33 31.66 38.33 24.43C38.33 17.2 38.33 13.59 36.08 11.34C34.47 9.73 32.14 9.27 28.26 9.15C28.25 7.47 28.22 5.52 28.11 4.7C27.95 3.5 27.6 2.41 26.72 1.54C25.85 0.67 24.76 0.31 23.56 0.15C22.42 -0.01 20.98 0 19.26 0ZM25.39 9.1C25.38 7.48 25.35 5.73 25.26 5.08C25.14 4.2 24.94 3.82 24.69 3.57C24.44 3.32 24.06 3.12 23.18 3C22.25 2.87 21.01 2.87 19.16 2.87C17.31 2.87 16.07 2.87 15.15 3C14.26 3.12 13.88 3.32 13.63 3.57C13.38 3.82 13.18 4.2 13.06 5.08C12.97 5.73 12.95 7.48 12.94 9.1C13.69 9.1 14.48 9.1 15.33 9.1L23 9.1C23.84 9.1 24.64 9.1 25.39 9.1ZM19.16 15.33C19.96 15.33 20.6 15.97 20.6 16.77C22.69 17.29 24.43 18.96 24.43 21.24C24.43 22.03 23.79 22.68 23 22.68C22.2 22.68 21.56 22.03 21.56 21.24C21.56 20.5 20.74 19.48 19.16 19.48C17.58 19.48 16.77 20.5 16.77 21.24C16.77 21.97 17.58 23 19.16 23C21.82 23 24.43 24.83 24.43 27.63C24.43 29.91 22.69 31.55 20.6 32.08C20.6 32.87 19.96 33.54 19.16 33.54C18.37 33.54 17.72 32.89 17.72 32.1C15.64 31.57 13.89 29.91 13.89 27.63C13.89 26.83 14.53 26.19 15.33 26.19C16.12 26.19 16.77 26.83 16.77 27.63C16.77 28.36 17.58 29.38 19.16 29.38C20.74 29.38 21.56 28.36 21.56 27.63C21.56 26.89 20.74 25.87 19.16 25.87C16.51 25.87 13.89 24.03 13.89 21.24C13.89 18.96 15.64 17.31 17.72 16.79C17.72 15.99 18.37 15.33 19.16 15.33Z" fill="#00ADB5" fill-opacity="1.000000" fill-rule="evenodd"/>
</svg>
