<svg width="43.263519" height="43.266846" viewBox="0 0 43.2635 43.2668" fill="none" xmlns="http://www.w3.org/2000/svg" xmlns:xlink="http://www.w3.org/1999/xlink">
	<desc>
			Created with Pixso.
	</desc>
	<defs/>
	<path id="path" d="M24.74 35.21C26.88 31.18 34 31.18 34 31.18C41.43 31.1 42.43 26.59 43.1 24.32C41.9 34.01 34.29 41.72 24.63 43.06C23.94 41.59 23.11 38.28 24.74 35.21Z" fill="#00ADB5" fill-opacity="1.000000" fill-rule="nonzero"/>
	<path id="path" d="M6.5 8.29L5.61 7.53C2.25 11.34 0 16.15 0 21.63C0 33.44 9.46 43.05 21.23 43.26C20.46 40.98 19.96 37.28 21.87 33.69C23.62 30.38 27.15 29.08 29.4 28.53C30.62 28.23 31.75 28.08 32.57 28.01C32.98 27.97 33.32 27.96 33.56 27.95C33.69 27.94 33.79 27.94 33.86 27.94C36.85 27.9 38.12 27.02 38.66 26.42C39.32 25.67 39.58 24.79 39.94 23.56C40.37 22.1 41.78 21 43.26 21.07C43.12 15.69 41.02 10.79 37.64 7.08C37.57 7.46 37.49 7.82 37.41 8.13C37.04 9.57 36.42 11.11 35.67 12.26C34.93 13.38 33.61 14.38 32.74 15.01C32.08 15.48 31.41 15.88 30.85 16.2C30.35 16.49 29.75 16.83 29.37 17.08C28.6 17.59 28.14 18.04 27.83 18.65C28.02 19.35 28.15 20.15 28.16 20.99C28.16 22.98 27.14 24.56 25.92 25.54C24.72 26.51 23.17 27.06 21.6 27.04C15.21 26.97 11.47 21.76 10.99 16.4C10.85 14.84 10.15 13.16 9.17 11.59C8.21 10.07 7.13 8.88 6.5 8.29Z" fill="#00ADB5" fill-opacity="1.000000" fill-rule="nonzero"/>
	<path id="path" d="M14.22 16.11C13.82 11.6 10.34 7.4 8.65 5.86L7.72 5.06C11.48 1.9 16.33 0 21.63 0C26.42 0 30.85 1.55 34.43 4.18C34.94 5.72 33.97 8.93 32.96 10.47C32.59 11.03 31.76 11.72 30.85 12.37C28.79 13.85 26.2 14.58 24.88 17.3C24.5 18.08 24.52 18.84 24.7 19.5C24.83 19.98 24.91 20.49 24.91 21C24.92 22.63 23.26 23.81 21.63 23.79C17.38 23.75 14.6 20.32 14.22 16.11Z" fill="#00ADB5" fill-opacity="1.000000" fill-rule="nonzero"/>
</svg>
