<svg width="42.000000" height="39.000000" viewBox="0 0 42 39" fill="none" xmlns="http://www.w3.org/2000/svg" xmlns:xlink="http://www.w3.org/1999/xlink">
	<desc>
			Created with Pixso.
	</desc>
	<defs/>
	<path id="path" d="M25.34 6.69C27.28 8.03 28.64 10.31 28.89 12.94C29.68 13.35 30.56 13.59 31.49 13.59C34.9 13.59 37.65 10.55 37.65 6.79C37.65 3.04 34.9 0 31.49 0C28.13 0 25.39 2.98 25.34 6.69ZM21.3 20.61C24.71 20.61 27.46 17.56 27.46 13.81C27.46 10.05 24.71 7.01 21.3 7.01C17.9 7.01 15.14 10.06 15.14 13.81C15.14 17.56 17.9 20.61 21.3 20.61ZM23.92 21.07L18.69 21.07C14.34 21.07 10.8 24.97 10.8 29.77L10.8 36.82L10.82 36.93L11.26 37.09C15.41 38.52 19.02 39 21.98 39C27.78 39 31.14 37.17 31.35 37.06L31.76 36.83L31.8 29.77C31.8 24.97 28.27 21.07 23.92 21.07ZM34.11 14.05L28.92 14.05C28.87 16.34 27.98 18.4 26.58 19.89C30.44 21.15 33.27 25.11 33.27 29.78L33.27 31.96C38.39 31.75 41.35 30.15 41.54 30.04L41.95 29.81L42 22.75C42 17.96 38.46 14.05 34.11 14.05ZM10.5 13.59C11.7 13.59 12.82 13.2 13.77 12.54C14.07 10.37 15.13 8.47 16.64 7.18C16.64 7.05 16.66 6.92 16.66 6.79C16.66 3.04 13.9 0 10.5 0C7.09 0 4.34 3.04 4.34 6.79C4.34 10.55 7.09 13.59 10.5 13.59ZM16.03 19.89C14.63 18.41 13.75 16.36 13.69 14.08C13.49 14.07 13.3 14.05 13.11 14.05L7.88 14.05C3.53 14.05 0 17.96 0 22.75L0 29.81L0.01 29.92L0.45 30.07C3.78 31.22 6.75 31.75 9.33 31.91L9.33 29.78C9.33 25.11 12.16 21.16 16.03 19.89Z" fill="#00ADB5" fill-opacity="1.000000" fill-rule="nonzero"/>
</svg>
