<svg width="40.000000" height="40.000000" viewBox="0 0 40 40" fill="none" xmlns="http://www.w3.org/2000/svg" xmlns:xlink="http://www.w3.org/1999/xlink">
	<defs>
		<clipPath id="clip13_138">
			<rect id="coin-1-svgrepo-com" width="40.000000" height="40.000000" fill="white" fill-opacity="0"/>
		</clipPath>
	</defs>
	<g clip-path="url(#clip13_138)">
		<path id="path" d="M36.53 27.91C35.98 32.34 32.34 35.98 27.91 36.53C25.23 36.86 22.73 36.13 20.78 34.69C19.66 33.88 19.93 32.14 21.26 31.74C26.28 30.23 30.23 26.26 31.76 21.24C32.16 19.93 33.89 19.66 34.71 20.76C36.13 22.73 36.86 25.23 36.53 27.91Z" fill="#EEEEEE" fill-opacity="1.000000" fill-rule="nonzero"/>
		<path id="path" d="M16.65 3.33C9.3 3.33 3.33 9.3 3.33 16.65C3.33 24 9.3 29.96 16.65 29.96C24 29.96 29.96 24 29.96 16.65C29.95 9.3 24 3.33 16.65 3.33ZM15.08 14.78L19.1 16.18C20.55 16.7 21.25 17.71 21.25 19.28C21.25 21.08 19.81 22.56 18.06 22.56C18.06 23.25 17.35 23.9 16.66 23.9C15.98 23.9 15.41 23.33 15.41 22.65C13.56 22.56 12.08 20.91 12.08 18.98C12.08 18.29 12.65 17.73 13.33 17.73C14.01 17.73 14.58 18.29 14.58 18.98C14.58 19.58 15.01 20.06 15.55 20.06L18.04 20.06C18.43 20.06 18.73 19.71 18.73 19.28C18.73 18.7 18.63 18.66 18.25 18.53L14.23 17.13C12.8 16.63 12.08 15.61 12.08 14.03C12.08 12.23 13.51 10.75 15.26 10.75C15.26 10.06 15.98 9.43 16.66 9.43C17.35 9.43 17.91 9.99 17.91 10.68C19.76 10.76 21.25 12.41 21.25 14.35C21.25 15.03 20.68 15.6 20 15.6C19.31 15.6 18.75 15.03 18.75 14.35C18.75 13.75 18.31 13.26 17.78 13.26L15.28 13.26C14.9 13.26 14.6 13.61 14.6 14.05C14.58 14.61 14.68 14.65 15.08 14.78Z" fill="#EEEEEE" fill-opacity="1.000000" fill-rule="nonzero"/>
	</g>
</svg>
