<svg width="40.000000" height="40.000000" viewBox="0 0 40 40" fill="none" xmlns="http://www.w3.org/2000/svg" xmlns:xlink="http://www.w3.org/1999/xlink">
	<desc>
			Created with Pixso.
	</desc>
	<defs>
		<clipPath id="clip13_136">
			<rect id="roulette-chip-svgrepo-com" width="40.000000" height="40.000000" fill="white" fill-opacity="0"/>
		</clipPath>
	</defs>
	<g clip-path="url(#clip13_136)">
		<path id="roulette-chip" d="M29.04 36.41C29.64 36.93 30.39 37.26 31.21 37.39L31.45 37.42L31.45 40C29.94 39.9 28.55 39.31 27.46 38.39L27.25 38.2L29.04 36.41ZM34.82 36.28L36.56 38.03C35.49 39.06 34.16 39.81 32.6 39.97L32.31 40L32.31 37.42C33.28 37.33 34.15 36.91 34.82 36.28ZM27.6 33.59C27.68 34.32 27.95 34.98 28.33 35.56L28.49 35.77L26.66 37.59C25.8 36.57 25.23 35.29 25.08 33.9L25.05 33.59L27.6 33.59ZM36.14 33.59L38.71 33.59C38.63 34.96 38.14 36.21 37.37 37.25L37.2 37.47L35.38 35.63C35.79 35.04 36.06 34.35 36.14 33.59ZM4.9 27.98C5.06 28.22 5.27 28.37 5.49 28.37L25.72 28.37C24.69 29.69 24.08 31.36 24.08 33.17C24.08 34.59 24.46 35.92 25.12 37.07L10.27 37.07C8.65 37.07 7 35.68 6.44 33.96L5.34 30.57L5.02 29.64L4.97 29.47C4.86 29.1 4.8 28.81 4.81 28.51C4.81 28.32 4.85 28.14 4.9 27.98ZM31.88 29.74C33.77 29.74 35.3 31.28 35.3 33.17C35.3 35.06 33.77 36.59 31.88 36.59C29.99 36.59 28.46 35.06 28.46 33.17C28.46 31.28 29.99 29.74 31.88 29.74ZM26.66 28.75L28.44 30.53C28.02 31.07 27.78 31.76 27.66 32.47L27.63 32.74L25.05 32.74C25.15 31.22 25.73 29.84 26.66 28.75ZM35.21 30.48L37.03 28.66C37.93 29.69 38.53 30.99 38.68 32.43L38.71 32.74L36.16 32.74C36.08 31.97 35.78 31.26 35.35 30.67L35.21 30.48L37.03 28.66L35.21 30.48ZM31.45 26.34L31.45 28.9C30.54 28.99 29.72 29.38 29.07 29.95L27.25 28.13C28.37 27.1 29.84 26.44 31.45 26.34ZM32.31 28.89L32.31 26.34C33.79 26.43 35.14 26.99 36.21 27.87L36.42 28.05L34.6 29.87C34.03 29.39 33.33 29.07 32.56 28.94L32.31 28.89L32.31 26.34L32.31 28.89ZM35.06 23.89C35.54 23.89 35.93 24.24 35.98 24.7L35.99 24.8L35.99 26.08C35.99 26.22 35.96 26.36 35.9 26.47C34.73 25.77 33.35 25.36 31.88 25.36C30.08 25.36 28.42 25.97 27.1 27L5.49 27C5.01 27 4.62 26.65 4.57 26.19L4.56 26.08L4.56 24.8C4.56 24.33 4.92 23.95 5.38 23.89L5.49 23.89L35.06 23.89ZM20.28 0C21.65 0 22.77 1.1 22.77 2.47C22.77 3.54 22.08 4.46 21.11 4.8L21.11 6.58L22.92 6.58C23.26 5.62 24.18 4.94 25.27 4.94C26.65 4.94 27.76 6.04 27.76 7.41C27.76 8.77 26.65 9.88 25.27 9.88C24.18 9.88 23.26 9.2 22.92 8.24L21.11 8.24L21.11 9.35C21.57 9.58 21.93 10.01 22.06 10.52L25.27 22.52L15.28 22.52L18.49 10.52C18.63 9.99 18.99 9.58 19.44 9.35L19.44 8.24L17.64 8.24C17.29 9.2 16.37 9.88 15.29 9.88C13.91 9.88 12.79 8.77 12.79 7.41C12.79 6.04 13.91 4.94 15.29 4.94C16.37 4.94 17.29 5.62 17.64 6.58L19.44 6.58L19.44 4.8C18.47 4.46 17.78 3.54 17.78 2.47C17.78 1.1 18.9 0 20.28 0Z" fill="#EEEEEE" fill-opacity="1.000000" fill-rule="nonzero"/>
		<path id="roulette-chip" d="M31.21 37.39L31.45 37.42L31.45 40C29.94 39.9 28.55 39.31 27.46 38.39L27.25 38.2L29.04 36.41C29.64 36.93 30.39 37.26 31.21 37.39ZM36.56 38.03C35.49 39.06 34.16 39.81 32.6 39.97L32.31 40L32.31 37.42C33.28 37.33 34.15 36.91 34.82 36.28L36.56 38.03ZM28.33 35.56L28.49 35.77L26.66 37.59C25.8 36.57 25.23 35.29 25.08 33.9L25.05 33.59L27.6 33.59C27.68 34.32 27.95 34.98 28.33 35.56ZM38.71 33.59C38.63 34.96 38.14 36.21 37.37 37.25L37.2 37.47L35.38 35.63C35.79 35.04 36.06 34.35 36.14 33.59L38.71 33.59ZM5.49 28.37L25.72 28.37C24.69 29.69 24.08 31.36 24.08 33.17C24.08 34.59 24.46 35.92 25.12 37.07L10.27 37.07C8.65 37.07 7 35.68 6.44 33.96L5.34 30.57L5.02 29.64L4.97 29.47C4.86 29.1 4.8 28.81 4.81 28.51C4.81 28.32 4.85 28.14 4.9 27.98C5.06 28.22 5.27 28.37 5.49 28.37ZM35.3 33.17C35.3 35.06 33.77 36.59 31.88 36.59C29.99 36.59 28.46 35.06 28.46 33.17C28.46 31.28 29.99 29.74 31.88 29.74C33.77 29.74 35.3 31.28 35.3 33.17ZM28.44 30.53C28.02 31.07 27.78 31.76 27.66 32.47L27.63 32.74L25.05 32.74C25.15 31.22 25.73 29.84 26.66 28.75L28.44 30.53ZM37.03 28.66C37.93 29.69 38.53 30.99 38.68 32.43L38.71 32.74L36.16 32.74C36.08 31.97 35.78 31.26 35.35 30.67L35.21 30.48L37.03 28.66ZM31.45 28.9C30.54 28.99 29.72 29.38 29.07 29.95L27.25 28.13C28.37 27.1 29.84 26.44 31.45 26.34L31.45 28.9ZM32.31 26.34C33.79 26.43 35.14 26.99 36.21 27.87L36.42 28.05L34.6 29.87C34.03 29.39 33.33 29.07 32.56 28.94L32.31 28.89L32.31 26.34ZM35.98 24.7L35.99 24.8L35.99 26.08C35.99 26.22 35.96 26.36 35.9 26.47C34.73 25.77 33.35 25.36 31.88 25.36C30.08 25.36 28.42 25.97 27.1 27L5.49 27C5.01 27 4.62 26.65 4.57 26.19L4.56 26.08L4.56 24.8C4.56 24.33 4.92 23.95 5.38 23.89L5.49 23.89L35.06 23.89C35.54 23.89 35.93 24.24 35.98 24.7ZM22.77 2.47C22.77 3.54 22.08 4.46 21.11 4.8L21.11 6.58L22.92 6.58C23.26 5.62 24.18 4.94 25.27 4.94C26.65 4.94 27.76 6.04 27.76 7.41C27.76 8.77 26.65 9.88 25.27 9.88C24.18 9.88 23.26 9.2 22.92 8.24L21.11 8.24L21.11 9.35C21.57 9.58 21.93 10.01 22.06 10.52L25.27 22.52L15.28 22.52L18.49 10.52C18.63 9.99 18.99 9.58 19.44 9.35L19.44 8.24L17.64 8.24C17.29 9.2 16.37 9.88 15.29 9.88C13.91 9.88 12.79 8.77 12.79 7.41C12.79 6.04 13.91 4.94 15.29 4.94C16.37 4.94 17.29 5.62 17.64 6.58L19.44 6.58L19.44 4.8C18.47 4.46 17.78 3.54 17.78 2.47C17.78 1.1 18.9 0 20.28 0C21.65 0 22.77 1.1 22.77 2.47Z" stroke="#000000" stroke-opacity="0" stroke-width="1.560976"/>
	</g>
</svg>
