<svg width="13.500000" height="15.000076" viewBox="0 0 13.5 15.0001" fill="none" xmlns="http://www.w3.org/2000/svg" xmlns:xlink="http://www.w3.org/1999/xlink">
	<desc>
			Created with Pixso.
	</desc>
	<defs/>
	<path id="path" d="M0 3.28C0 2.92 0.25 2.63 0.57 2.63L2.57 2.63C2.97 2.61 3.32 2.33 3.45 1.9L3.56 1.53C3.62 1.35 3.66 1.2 3.73 1.06C3.98 0.5 4.45 0.12 4.99 0.02C5.13 -0.01 5.27 -0.01 5.44 1.52e-5L8.05 1.52e-5C8.22 -0.01 8.36 -0.01 8.5 0.02C9.04 0.12 9.51 0.5 9.77 1.06C9.83 1.2 9.87 1.35 9.93 1.53L10.01 1.83C10.15 2.25 10.59 2.62 10.99 2.63L12.92 2.63C13.24 2.63 13.5 2.92 13.5 3.28C13.5 3.65 13.24 3.94 12.92 3.94L0.57 3.94C0.25 3.94 0 3.65 0 3.28Z" fill="#EEEEEE" fill-opacity="1.000000" fill-rule="nonzero"/>
	<path id="path" d="M6.44 15L7.05 15C9.14 15 10.18 15 10.86 14.33C11.54 13.67 11.61 12.58 11.74 10.4L11.94 7.26C12.02 6.07 12.06 5.48 11.72 5.11C11.38 4.73 10.8 4.73 9.65 4.73L3.84 4.73C2.69 4.73 2.11 4.73 1.77 5.11C1.43 5.48 1.47 6.07 1.55 7.26L1.75 10.4C1.88 12.58 1.95 13.67 2.63 14.33C3.31 15 4.35 15 6.44 15ZM5.43 7.64C5.4 7.31 5.12 7.07 4.81 7.11C4.5 7.14 4.28 7.43 4.31 7.75L4.69 11.7C4.72 12.03 4.99 12.26 5.3 12.23C5.61 12.2 5.84 11.91 5.8 11.58L5.43 7.64ZM8.68 7.11C8.99 7.14 9.21 7.43 9.18 7.75L8.8 11.7C8.77 12.03 8.5 12.26 8.19 12.23C7.88 12.2 7.65 11.91 7.69 11.58L8.06 7.64C8.09 7.31 8.37 7.07 8.68 7.11Z" fill="#EEEEEE" fill-opacity="1.000000" fill-rule="evenodd"/>
</svg>
