<svg width="35.000000" height="35.000000" viewBox="0 0 35 35" fill="none" xmlns="http://www.w3.org/2000/svg" xmlns:xlink="http://www.w3.org/1999/xlink">
	<desc>
			Created with Pixso.
	</desc>
	<defs>
		<clipPath id="clip29_76">
			<rect id="cup-svgrepo-com (1).svg" width="35.000000" height="35.000000" fill="white" fill-opacity="0"/>
		</clipPath>
	</defs>
	<g clip-path="url(#clip29_76)">
		<path id="path" d="M7.57 12.85C6.91 12.98 6.37 13.4 6.37 14.07C6.37 14.74 6.91 15.28 7.57 15.28C7.9 15.28 8.22 15.23 8.51 15.14C8.23 14.39 8.02 13.61 7.87 12.79C7.87 12.79 7.65 12.84 7.57 12.85Z" fill="#00ADB5" fill-opacity="1.000000" fill-rule="nonzero"/>
		<path id="path" d="M21.37 23.71C21.03 22.81 20.91 22.05 20.91 22.05C20.83 21.59 20.41 21.32 19.96 21.45C19.96 21.45 18.64 21.83 17.5 21.83C16.35 21.83 15.03 21.45 15.03 21.45C14.58 21.32 14.16 21.59 14.08 22.05C14.08 22.05 13.97 22.77 13.64 23.66C13.42 24.24 13.3 24.45 13.3 24.45C13.06 24.85 13.24 25.17 13.7 25.17L21.29 25.17C21.75 25.17 21.93 24.85 21.69 24.45C21.69 24.45 21.58 24.27 21.37 23.71Z" fill="#00ADB5" fill-opacity="1.000000" fill-rule="nonzero"/>
		<path id="path" d="M24.6 0L10.39 0C9.79 0 9.31 0.48 9.31 1.08L9.31 10.06C9.31 12.87 10.14 15.43 11.64 17.27C13.15 19.11 15.23 20.13 17.5 20.13C19.76 20.13 21.84 19.11 23.35 17.27C24.85 15.43 25.68 12.87 25.68 10.06L25.68 1.08C25.68 0.48 25.2 0 24.6 0Z" fill="#00ADB5" fill-opacity="1.000000" fill-rule="nonzero"/>
		<path id="path" d="M7.63 8.85L5.58 8.85C4.06 8.85 2.82 7.6 2.82 6.06C2.82 4.52 4.06 3.26 5.58 3.26C6.39 3.26 7.12 3.62 7.63 4.17L7.63 1.26C7 0.99 6.31 0.84 5.58 0.84C2.73 0.84 0.41 3.18 0.41 6.06C0.41 8.93 2.73 11.28 5.58 11.28L7.67 11.28C7.64 10.87 7.63 10.47 7.63 10.06L7.63 8.85Z" fill="#00ADB5" fill-opacity="1.000000" fill-rule="nonzero"/>
		<path id="path" d="M27.32 11.28L29.41 11.28C32.26 11.28 34.58 8.93 34.58 6.06C34.58 3.18 32.26 0.84 29.41 0.84C28.68 0.84 27.99 0.99 27.36 1.26L27.36 4.17C27.87 3.62 28.6 3.26 29.41 3.26C30.93 3.26 32.17 4.52 32.17 6.06C32.17 7.6 30.93 8.85 29.41 8.85L27.36 8.85L27.36 10.06C27.36 10.47 27.35 10.87 27.32 11.28Z" fill="#00ADB5" fill-opacity="1.000000" fill-rule="nonzero"/>
		<path id="path" d="M7.57 26.87C6.91 26.87 6.37 27.42 6.37 28.09L6.37 34.1C6.37 34.77 6.91 35.31 7.57 35.31L27.42 35.31C28.08 35.31 28.62 34.77 28.62 34.1L28.62 28.09C28.62 27.42 28.08 26.87 27.42 26.87L7.57 26.87Z" fill="#00ADB5" fill-opacity="1.000000" fill-rule="nonzero"/>
		<path id="path" d="M27.12 12.79C26.97 13.61 26.76 14.39 26.48 15.14C26.78 15.23 27.09 15.28 27.42 15.28C28.08 15.28 28.62 14.74 28.62 14.07C28.62 13.4 28.12 12.99 27.42 12.85C27.34 12.84 27.12 12.79 27.12 12.79Z" fill="#00ADB5" fill-opacity="1.000000" fill-rule="nonzero"/>
	</g>
</svg>
