<svg width="35.000000" height="20.512222" viewBox="0 0 35 20.5122" fill="none" xmlns="http://www.w3.org/2000/svg" xmlns:xlink="http://www.w3.org/1999/xlink">
	<desc>
			Created with Pixso.
	</desc>
	<defs/>
	<path id="path" d="M34.89 14.68L32.85 6.3C31.82 2.58 28.34 0 24.36 0L10.63 0C6.65 0 3.17 2.58 2.14 6.3L0.1 14.68C-0.42 17.08 1.01 19.47 3.43 20.23L3.54 20.27C5.78 20.97 8.21 20.07 9.38 18.1L11.15 15.57C11.6 14.82 12.42 14.36 13.31 14.36L21.68 14.36C22.57 14.36 23.39 14.82 23.84 15.57L25.61 18.1C26.78 20.07 29.21 20.97 31.45 20.27L31.56 20.23C33.98 19.47 35.41 17.08 34.89 14.68ZM13.05 9.07L10.21 9.07L10.21 11.82L7.72 11.82L7.72 9.07L4.87 9.07L4.87 6.67L7.72 6.67L7.72 3.91L10.21 3.91L10.21 6.67L13.05 6.67L13.05 9.07ZM25.61 3.33C26.47 3.33 27.17 4.01 27.17 4.85C27.17 5.68 26.47 6.36 25.61 6.36C24.75 6.36 24.05 5.68 24.05 4.85C24.05 4.01 24.75 3.33 25.61 3.33ZM22.49 9.38C21.63 9.38 20.93 8.7 20.93 7.87C20.93 7.03 21.63 6.36 22.49 6.36C23.35 6.36 24.05 7.03 24.05 7.87C24.05 8.7 23.35 9.38 22.49 9.38ZM25.61 12.4C24.75 12.4 24.05 11.72 24.05 10.89C24.05 10.05 24.75 9.38 25.61 9.38C26.47 9.38 27.17 10.05 27.17 10.89C27.17 11.72 26.47 12.4 25.61 12.4ZM28.73 9.38C27.87 9.38 27.17 8.7 27.17 7.87C27.17 7.03 27.87 6.36 28.73 6.36C29.6 6.36 30.3 7.03 30.3 7.87C30.3 8.7 29.6 9.38 28.73 9.38Z" fill="#00ADB5" fill-opacity="1.000000" fill-rule="nonzero"/>
</svg>
