<svg width="35.000000" height="34.000000" viewBox="0 0 35 34" fill="none" xmlns="http://www.w3.org/2000/svg" xmlns:xlink="http://www.w3.org/1999/xlink">
	<desc>
			Created with Pixso.
	</desc>
	<defs>
		<clipPath id="clip29_88">
			<rect id="users-svgrepo-com.svg" width="35.000000" height="34.000000" fill="white" fill-opacity="0"/>
		</clipPath>
	</defs>
	<g clip-path="url(#clip29_88)">
		<path id="path" d="M2.18 9.29C2.18 4.94 5.77 1.42 10.2 1.42C14.63 1.42 18.22 4.94 18.22 9.29C18.22 13.63 14.63 17.15 10.2 17.15C5.77 17.15 2.18 13.63 2.18 9.29Z" fill="#00ADB5" fill-opacity="1.000000" fill-rule="nonzero"/>
		<path id="path" d="M21.14 9.29C21.14 11.43 20.5 13.43 19.39 15.1C20.82 16.37 22.71 17.15 24.79 17.15C29.22 17.15 32.81 13.63 32.81 9.29C32.81 4.94 29.22 1.42 24.79 1.42C22.71 1.42 20.82 2.2 19.39 3.47C20.5 5.14 21.14 7.14 21.14 9.29Z" fill="#00ADB5" fill-opacity="1.000000" fill-rule="nonzero"/>
		<path id="path" d="M0 25.72C0 22.57 2.61 20.01 5.83 20.01L14.58 20.01C17.8 20.01 20.41 22.57 20.41 25.72L20.41 31.44C20.41 32.23 19.76 32.87 18.95 32.87L1.45 32.87C0.65 32.87 0 32.23 0 31.44L0 25.72Z" fill="#00ADB5" fill-opacity="1.000000" fill-rule="nonzero"/>
		<path id="path" d="M23.33 25.72L23.33 32.87L33.54 32.87C34.34 32.87 35 32.23 35 31.44L35 25.72C35 22.57 32.38 20.01 29.16 20.01L21.1 20.01C22.49 21.52 23.33 23.53 23.33 25.72Z" fill="#00ADB5" fill-opacity="1.000000" fill-rule="nonzero"/>
	</g>
</svg>
